<svg xmlns="http://www.w3.org/2000/svg" xmlns:xlink="http://www.w3.org/1999/xlink" contentStyleType="text/css" height="945px" preserveAspectRatio="none" style="width:360px;height:945px;background:#FFFFFF;" version="1.1" viewBox="0 0 360 945" width="360px" zoomAndPan="magnify"><defs/><g><!--class User--><g id="elem_User"><rect codeLine="2" fill="#F1F1F1" height="103.8633" id="User" rx="2.5" ry="2.5" style="stroke:#181818;stroke-width:0.5;" width="153.6611" x="102" y="7"/><ellipse cx="159.8013" cy="23" fill="#ADD1B2" rx="11" ry="11" style="stroke:#181818;stroke-width:1.0;"/><path d="M158.6606,23.7969 L158.6606,26.2969 L162.9888,26.2969 L162.9888,25.375 Q162.9888,24.7656 163.2231,24.5 Q163.4731,24.2344 163.8481,24.2344 Q164.2231,24.2344 164.4575,24.5 Q164.6919,24.7656 164.6919,25.375 L164.6919,28 L156.6919,28 Q156.0669,28 155.8013,27.7656 Q155.5513,27.5313 155.5513,27.1406 Q155.5513,26.7656 155.8169,26.5313 Q156.0825,26.2969 156.6919,26.2969 L156.9575,26.2969 L156.9575,19.6406 L156.6919,19.6406 Q156.0669,19.6406 155.8013,19.4063 Q155.5513,19.1719 155.5513,18.7813 Q155.5513,18.4063 155.8013,18.1719 Q156.0669,17.9375 156.6919,17.9375 L164.3169,17.9375 L164.3169,20.5313 Q164.3169,21.1406 164.0825,21.4063 Q163.8638,21.6563 163.4731,21.6563 Q163.0981,21.6563 162.8638,21.4063 Q162.6294,21.1406 162.6294,20.5313 L162.6294,19.6406 L158.6606,19.6406 L158.6606,22.0938 L160.145,22.0938 Q160.145,21.4375 160.27,21.25 Q160.5356,20.8438 161.0044,20.8438 Q161.3794,20.8438 161.6138,21.1094 Q161.8481,21.3594 161.8481,21.9688 L161.8481,23.9375 Q161.8481,24.4844 161.7231,24.6719 Q161.4575,25.0625 161.0044,25.0625 Q160.5356,25.0625 160.27,24.6563 Q160.145,24.4688 160.145,23.7969 L158.6606,23.7969 Z " fill="#000000"/><text fill="#000000" font-family="sans-serif" font-size="14" lengthAdjust="spacing" textLength="29.5586" x="180.3013" y="28.7969">User</text><line style="stroke:#181818;stroke-width:0.5;" x1="103" x2="254.6611" y1="39" y2="39"/><ellipse cx="113" cy="53.8105" fill="#000000" rx="3" ry="3" style="stroke:#000000;stroke-width:1.0;"/><text fill="#000000" font-family="sans-serif" font-size="14" lengthAdjust="spacing" textLength="127.6611" x="122" y="58.1074">id: uuid &#171;generated&#187;</text><text fill="#000000" font-family="sans-serif" font-size="14" lengthAdjust="spacing" textLength="59.9238" x="122" y="76.7285">login: text</text><text fill="#000000" font-family="sans-serif" font-size="14" lengthAdjust="spacing" textLength="90.2617" x="122" y="95.3496">password: text</text><line style="stroke:#181818;stroke-width:1.0;" x1="103" x2="254.6611" y1="102.8633" y2="102.8633"/></g><!--class House--><g id="elem_House"><rect codeLine="9" fill="#F1F1F1" height="122.4844" id="House" rx="2.5" ry="2.5" style="stroke:#181818;stroke-width:0.5;" width="153.6611" x="102" y="232"/><ellipse cx="154.3462" cy="248" fill="#ADD1B2" rx="11" ry="11" style="stroke:#181818;stroke-width:1.0;"/><path d="M153.2056,248.7969 L153.2056,251.2969 L157.5337,251.2969 L157.5337,250.375 Q157.5337,249.7656 157.7681,249.5 Q158.0181,249.2344 158.3931,249.2344 Q158.7681,249.2344 159.0024,249.5 Q159.2368,249.7656 159.2368,250.375 L159.2368,253 L151.2368,253 Q150.6118,253 150.3462,252.7656 Q150.0962,252.5313 150.0962,252.1406 Q150.0962,251.7656 150.3618,251.5313 Q150.6274,251.2969 151.2368,251.2969 L151.5024,251.2969 L151.5024,244.6406 L151.2368,244.6406 Q150.6118,244.6406 150.3462,244.4063 Q150.0962,244.1719 150.0962,243.7813 Q150.0962,243.4063 150.3462,243.1719 Q150.6118,242.9375 151.2368,242.9375 L158.8618,242.9375 L158.8618,245.5313 Q158.8618,246.1406 158.6274,246.4063 Q158.4087,246.6563 158.0181,246.6563 Q157.6431,246.6563 157.4087,246.4063 Q157.1743,246.1406 157.1743,245.5313 L157.1743,244.6406 L153.2056,244.6406 L153.2056,247.0938 L154.6899,247.0938 Q154.6899,246.4375 154.8149,246.25 Q155.0806,245.8438 155.5493,245.8438 Q155.9243,245.8438 156.1587,246.1094 Q156.3931,246.3594 156.3931,246.9688 L156.3931,248.9375 Q156.3931,249.4844 156.2681,249.6719 Q156.0024,250.0625 155.5493,250.0625 Q155.0806,250.0625 154.8149,249.6563 Q154.6899,249.4688 154.6899,248.7969 L153.2056,248.7969 Z " fill="#000000"/><text fill="#000000" font-family="sans-serif" font-size="14" lengthAdjust="spacing" textLength="40.4688" x="174.8462" y="253.7969">House</text><line style="stroke:#181818;stroke-width:0.5;" x1="103" x2="254.6611" y1="264" y2="264"/><ellipse cx="113" cy="278.8105" fill="#000000" rx="3" ry="3" style="stroke:#000000;stroke-width:1.0;"/><text fill="#000000" font-family="sans-serif" font-size="14" lengthAdjust="spacing" textLength="127.6611" x="122" y="283.1074">id: uuid &#171;generated&#187;</text><text fill="#000000" font-family="sans-serif" font-size="14" lengthAdjust="spacing" textLength="52.1309" x="122" y="301.7285">title: text</text><text fill="#000000" font-family="sans-serif" font-size="14" lengthAdjust="spacing" textLength="80.1514" x="122" y="320.3496">address: text</text><text fill="#000000" font-family="sans-serif" font-size="14" lengthAdjust="spacing" textLength="80.165" x="122" y="338.9707">user_id: uuid</text><line style="stroke:#181818;stroke-width:1.0;" x1="103" x2="254.6611" y1="346.4844" y2="346.4844"/></g><!--class Device--><g id="elem_Device"><rect codeLine="17" fill="#F1F1F1" height="178.3477" id="Device" rx="2.5" ry="2.5" style="stroke:#181818;stroke-width:0.5;" width="178.5303" x="89.5" y="475"/><ellipse cx="153.1187" cy="491" fill="#ADD1B2" rx="11" ry="11" style="stroke:#181818;stroke-width:1.0;"/><path d="M151.978,491.7969 L151.978,494.2969 L156.3062,494.2969 L156.3062,493.375 Q156.3062,492.7656 156.5405,492.5 Q156.7905,492.2344 157.1655,492.2344 Q157.5405,492.2344 157.7749,492.5 Q158.0093,492.7656 158.0093,493.375 L158.0093,496 L150.0093,496 Q149.3843,496 149.1187,495.7656 Q148.8687,495.5313 148.8687,495.1406 Q148.8687,494.7656 149.1343,494.5313 Q149.3999,494.2969 150.0093,494.2969 L150.2749,494.2969 L150.2749,487.6406 L150.0093,487.6406 Q149.3843,487.6406 149.1187,487.4063 Q148.8687,487.1719 148.8687,486.7813 Q148.8687,486.4063 149.1187,486.1719 Q149.3843,485.9375 150.0093,485.9375 L157.6343,485.9375 L157.6343,488.5313 Q157.6343,489.1406 157.3999,489.4063 Q157.1812,489.6563 156.7905,489.6563 Q156.4155,489.6563 156.1812,489.4063 Q155.9468,489.1406 155.9468,488.5313 L155.9468,487.6406 L151.978,487.6406 L151.978,490.0938 L153.4624,490.0938 Q153.4624,489.4375 153.5874,489.25 Q153.853,488.8438 154.3218,488.8438 Q154.6968,488.8438 154.9312,489.1094 Q155.1655,489.3594 155.1655,489.9688 L155.1655,491.9375 Q155.1655,492.4844 155.0405,492.6719 Q154.7749,493.0625 154.3218,493.0625 Q153.853,493.0625 153.5874,492.6563 Q153.4624,492.4688 153.4624,491.7969 L151.978,491.7969 Z " fill="#000000"/><text fill="#000000" font-family="sans-serif" font-size="14" lengthAdjust="spacing" textLength="42.793" x="173.6187" y="496.7969">Device</text><line style="stroke:#181818;stroke-width:0.5;" x1="90.5" x2="267.0303" y1="507" y2="507"/><ellipse cx="100.5" cy="521.8105" fill="#000000" rx="3" ry="3" style="stroke:#000000;stroke-width:1.0;"/><text fill="#000000" font-family="sans-serif" font-size="14" lengthAdjust="spacing" textLength="127.6611" x="109.5" y="526.1074">id: uuid &#171;generated&#187;</text><text fill="#000000" font-family="sans-serif" font-size="14" lengthAdjust="spacing" textLength="52.1309" x="109.5" y="544.7285">title: text</text><text fill="#000000" font-family="sans-serif" font-size="14" lengthAdjust="spacing" textLength="79.3926" x="109.5" y="563.3496">type_id: uuid</text><text fill="#000000" font-family="sans-serif" font-size="14" lengthAdjust="spacing" textLength="91.0752" x="109.5" y="581.9707">house_id: uuid</text><text fill="#000000" font-family="sans-serif" font-size="14" lengthAdjust="spacing" textLength="119.0547" x="109.5" y="600.5918">serial_number: text</text><text fill="#000000" font-family="sans-serif" font-size="14" lengthAdjust="spacing" textLength="67.6963" x="109.5" y="619.2129">status: text</text><text fill="#000000" font-family="sans-serif" font-size="14" lengthAdjust="spacing" textLength="152.5303" x="109.5" y="637.834">last_updated: timestamp</text><line style="stroke:#181818;stroke-width:1.0;" x1="90.5" x2="267.0303" y1="645.3477" y2="645.3477"/></g><!--class DeviceType--><g id="elem_DeviceType"><rect codeLine="28" fill="#F1F1F1" height="85.2422" id="DeviceType" rx="2.5" ry="2.5" style="stroke:#181818;stroke-width:0.5;" width="153.6611" x="7" y="844.5"/><ellipse cx="43.4849" cy="860.5" fill="#ADD1B2" rx="11" ry="11" style="stroke:#181818;stroke-width:1.0;"/><path d="M42.3442,861.2969 L42.3442,863.7969 L46.6724,863.7969 L46.6724,862.875 Q46.6724,862.2656 46.9067,862 Q47.1567,861.7344 47.5317,861.7344 Q47.9067,861.7344 48.1411,862 Q48.3755,862.2656 48.3755,862.875 L48.3755,865.5 L40.3755,865.5 Q39.7505,865.5 39.4849,865.2656 Q39.2349,865.0313 39.2349,864.6406 Q39.2349,864.2656 39.5005,864.0313 Q39.7661,863.7969 40.3755,863.7969 L40.6411,863.7969 L40.6411,857.1406 L40.3755,857.1406 Q39.7505,857.1406 39.4849,856.9063 Q39.2349,856.6719 39.2349,856.2813 Q39.2349,855.9063 39.4849,855.6719 Q39.7505,855.4375 40.3755,855.4375 L48.0005,855.4375 L48.0005,858.0313 Q48.0005,858.6406 47.7661,858.9063 Q47.5474,859.1563 47.1567,859.1563 Q46.7817,859.1563 46.5474,858.9063 Q46.313,858.6406 46.313,858.0313 L46.313,857.1406 L42.3442,857.1406 L42.3442,859.5938 L43.8286,859.5938 Q43.8286,858.9375 43.9536,858.75 Q44.2192,858.3438 44.688,858.3438 Q45.063,858.3438 45.2974,858.6094 Q45.5317,858.8594 45.5317,859.4688 L45.5317,861.4375 Q45.5317,861.9844 45.4067,862.1719 Q45.1411,862.5625 44.688,862.5625 Q44.2192,862.5625 43.9536,862.1563 Q43.8286,861.9688 43.8286,861.2969 L42.3442,861.2969 Z " fill="#000000"/><text fill="#000000" font-family="sans-serif" font-size="14" lengthAdjust="spacing" textLength="73.917" x="62.2593" y="866.2969">DeviceType</text><line style="stroke:#181818;stroke-width:0.5;" x1="8" x2="159.6611" y1="876.5" y2="876.5"/><ellipse cx="18" cy="891.3105" fill="#000000" rx="3" ry="3" style="stroke:#000000;stroke-width:1.0;"/><text fill="#000000" font-family="sans-serif" font-size="14" lengthAdjust="spacing" textLength="127.6611" x="27" y="895.6074">id: uuid &#171;generated&#187;</text><text fill="#000000" font-family="sans-serif" font-size="14" lengthAdjust="spacing" textLength="52.1309" x="27" y="914.2285">title: text</text><line style="stroke:#181818;stroke-width:1.0;" x1="8" x2="159.6611" y1="921.7422" y2="921.7422"/></g><!--class Telemetry--><g id="elem_Telemetry"><rect codeLine="34" fill="#F1F1F1" height="103.8633" id="Telemetry" rx="2.5" ry="2.5" style="stroke:#181818;stroke-width:0.5;" width="157.5303" x="196" y="835"/><ellipse cx="239.4832" cy="851" fill="#ADD1B2" rx="11" ry="11" style="stroke:#181818;stroke-width:1.0;"/><path d="M238.3425,851.7969 L238.3425,854.2969 L242.6707,854.2969 L242.6707,853.375 Q242.6707,852.7656 242.905,852.5 Q243.155,852.2344 243.53,852.2344 Q243.905,852.2344 244.1394,852.5 Q244.3738,852.7656 244.3738,853.375 L244.3738,856 L236.3738,856 Q235.7488,856 235.4832,855.7656 Q235.2332,855.5313 235.2332,855.1406 Q235.2332,854.7656 235.4988,854.5313 Q235.7644,854.2969 236.3738,854.2969 L236.6394,854.2969 L236.6394,847.6406 L236.3738,847.6406 Q235.7488,847.6406 235.4832,847.4063 Q235.2332,847.1719 235.2332,846.7813 Q235.2332,846.4063 235.4832,846.1719 Q235.7488,845.9375 236.3738,845.9375 L243.9988,845.9375 L243.9988,848.5313 Q243.9988,849.1406 243.7644,849.4063 Q243.5457,849.6563 243.155,849.6563 Q242.78,849.6563 242.5457,849.4063 Q242.3113,849.1406 242.3113,848.5313 L242.3113,847.6406 L238.3425,847.6406 L238.3425,850.0938 L239.8269,850.0938 Q239.8269,849.4375 239.9519,849.25 Q240.2175,848.8438 240.6863,848.8438 Q241.0613,848.8438 241.2957,849.1094 Q241.53,849.3594 241.53,849.9688 L241.53,851.9375 Q241.53,852.4844 241.405,852.6719 Q241.1394,853.0625 240.6863,853.0625 Q240.2175,853.0625 239.9519,852.6563 Q239.8269,852.4688 239.8269,851.7969 L238.3425,851.7969 Z " fill="#000000"/><text fill="#000000" font-family="sans-serif" font-size="14" lengthAdjust="spacing" textLength="62.2344" x="259.8127" y="856.7969">Telemetry</text><line style="stroke:#181818;stroke-width:0.5;" x1="197" x2="352.5303" y1="867" y2="867"/><text fill="#000000" font-family="sans-serif" font-size="14" lengthAdjust="spacing" textLength="93.3994" x="202" y="886.1074">device_id: uuid</text><text fill="#000000" font-family="sans-serif" font-size="14" lengthAdjust="spacing" textLength="60.71" x="202" y="904.7285">data: json</text><text fill="#000000" font-family="sans-serif" font-size="14" lengthAdjust="spacing" textLength="145.5303" x="202" y="923.3496">changed_at: timestamp</text><line style="stroke:#181818;stroke-width:1.0;" x1="197" x2="352.5303" y1="930.8633" y2="930.8633"/></g><!--link User to House--><g id="link_User_House"><path codeLine="41" d="M179,119.2 C179,154.83 179,176.47 179,213.9 " fill="none" id="User-House" style="stroke:#181818;stroke-width:1.0;"/><line style="stroke:#181818;stroke-width:1.0;" x1="175" x2="183" y1="115.2" y2="115.2"/><line style="stroke:#181818;stroke-width:1.0;" x1="175" x2="183" y1="118.2" y2="118.2"/><line style="stroke:#181818;stroke-width:1.0;" x1="179" x2="179" y1="119.2" y2="111.2"/><line style="stroke:#181818;stroke-width:1.0;" x1="179" x2="185" y1="223.9" y2="231.9"/><line style="stroke:#181818;stroke-width:1.0;" x1="179" x2="173" y1="223.9" y2="231.9"/><line style="stroke:#181818;stroke-width:1.0;" x1="179" x2="179" y1="223.9" y2="231.9"/><ellipse cx="179" cy="217.9" fill="none" rx="4" ry="4" style="stroke:#181818;stroke-width:1.0;"/></g><!--link House to Device--><g id="link_House_Device"><path codeLine="42" d="M179,362.03 C179,397.57 179,417.24 179,456.81 " fill="none" id="House-Device" style="stroke:#181818;stroke-width:1.0;"/><line style="stroke:#181818;stroke-width:1.0;" x1="175" x2="183" y1="358.03" y2="358.03"/><line style="stroke:#181818;stroke-width:1.0;" x1="175" x2="183" y1="361.03" y2="361.03"/><line style="stroke:#181818;stroke-width:1.0;" x1="179" x2="179" y1="362.03" y2="354.03"/><line style="stroke:#181818;stroke-width:1.0;" x1="179" x2="185" y1="466.81" y2="474.81"/><line style="stroke:#181818;stroke-width:1.0;" x1="179" x2="173" y1="466.81" y2="474.81"/><line style="stroke:#181818;stroke-width:1.0;" x1="179" x2="179" y1="466.81" y2="474.81"/><ellipse cx="179" cy="460.81" fill="none" rx="4" ry="4" style="stroke:#181818;stroke-width:1.0;"/></g><!--link Device to DeviceType--><g id="link_Device_DeviceType"><path codeLine="43" d="M147.8107,670.3996 C129.3507,732.7596 115.6585,779.0401 101.3985,827.2201 " fill="none" id="Device-DeviceType" style="stroke:#181818;stroke-width:1.0;"/><line style="stroke:#181818;stroke-width:1.0;" x1="150.6492" x2="147.1668" y1="660.811" y2="651.4369"/><line style="stroke:#181818;stroke-width:1.0;" x1="150.6492" x2="158.6732" y1="660.811" y2="654.8431"/><line style="stroke:#181818;stroke-width:1.0;" x1="150.6492" x2="152.92" y1="660.811" y2="653.14"/><ellipse cx="148.9461" cy="666.5642" fill="none" rx="4" ry="4" style="stroke:#181818;stroke-width:1.0;"/><line style="stroke:#181818;stroke-width:1.0;" x1="98.5604" x2="102.0433" y1="836.8089" y2="846.1828"/><line style="stroke:#181818;stroke-width:1.0;" x1="98.5604" x2="90.5367" y1="836.8089" y2="842.7772"/><line style="stroke:#181818;stroke-width:1.0;" x1="98.5604" x2="96.29" y1="836.8089" y2="844.48"/><ellipse cx="100.2633" cy="831.0556" fill="none" rx="4" ry="4" style="stroke:#181818;stroke-width:1.0;"/></g><!--link Device to Telemetry--><g id="link_Device_Telemetry"><path codeLine="44" d="M207.6523,660.8046 C225.0823,719.0846 239.8717,768.555 254.4717,817.365 " fill="none" id="Device-Telemetry" style="stroke:#181818;stroke-width:1.0;"/><line style="stroke:#181818;stroke-width:1.0;" x1="202.6739" x2="210.3384" y1="658.1184" y2="655.8261"/><line style="stroke:#181818;stroke-width:1.0;" x1="203.5335" x2="211.198" y1="660.9926" y2="658.7004"/><line style="stroke:#181818;stroke-width:1.0;" x1="207.6523" x2="205.36" y1="660.8046" y2="653.14"/><line style="stroke:#181818;stroke-width:1.0;" x1="257.3374" x2="265.3783" y1="826.9455" y2="832.8906"/><line style="stroke:#181818;stroke-width:1.0;" x1="257.3374" x2="253.8817" y1="826.9455" y2="836.3294"/><line style="stroke:#181818;stroke-width:1.0;" x1="257.3374" x2="259.63" y1="826.9455" y2="834.61"/><ellipse cx="255.618" cy="821.1972" fill="none" rx="4" ry="4" style="stroke:#181818;stroke-width:1.0;"/></g><!--SRC=[bP4nRiCm34LtdO9p0Lt0239rw07IsM0Zmb4XIuP8DJMItBsqNQjk4Q38o4_-poUHedWPuPKfmyK0F85t3PJY7Uns7KNAAEJsUss5rFdOWD2dQ3KWypbbLmLhpSqOMl9UKc7wBr0d0rK_EfU9kTOQaDlL-pV_cJxyyS45CWwq3JnDZ5j15teCRIpz6-LgOq4fFrW1MTeok6c9Yhud7UY7-u07NVaOvA-G0mNgIV8uPxWvSWki4DZ0EwUenV64iIFNejp3cWzylLfhqsMvZbbkj6eBiFd-s5koMtbwnzgQ3LEhqfal]--></g></svg>