<svg xmlns="http://www.w3.org/2000/svg" xmlns:xlink="http://www.w3.org/1999/xlink" contentStyleType="text/css" height="945px" preserveAspectRatio="none" style="width:443px;height:945px;background:#FFFFFF;" version="1.1" viewBox="0 0 443 945" width="443px" zoomAndPan="magnify"><defs/><g><!--class User--><g id="elem_User"><rect codeLine="2" fill="#F1F1F1" height="103.8633" id="User" rx="2.5" ry="2.5" style="stroke:#181818;stroke-width:0.5;" width="173.0615" x="113.5" y="7"/><ellipse cx="181.0015" cy="23" fill="#ADD1B2" rx="11" ry="11" style="stroke:#181818;stroke-width:1.0;"/><path d="M179.8608,23.7969 L179.8608,26.2969 L184.189,26.2969 L184.189,25.375 Q184.189,24.7656 184.4233,24.5 Q184.6733,24.2344 185.0483,24.2344 Q185.4233,24.2344 185.6577,24.5 Q185.8921,24.7656 185.8921,25.375 L185.8921,28 L177.8921,28 Q177.2671,28 177.0015,27.7656 Q176.7515,27.5313 176.7515,27.1406 Q176.7515,26.7656 177.0171,26.5313 Q177.2827,26.2969 177.8921,26.2969 L178.1577,26.2969 L178.1577,19.6406 L177.8921,19.6406 Q177.2671,19.6406 177.0015,19.4063 Q176.7515,19.1719 176.7515,18.7813 Q176.7515,18.4063 177.0015,18.1719 Q177.2671,17.9375 177.8921,17.9375 L185.5171,17.9375 L185.5171,20.5313 Q185.5171,21.1406 185.2827,21.4063 Q185.064,21.6563 184.6733,21.6563 Q184.2983,21.6563 184.064,21.4063 Q183.8296,21.1406 183.8296,20.5313 L183.8296,19.6406 L179.8608,19.6406 L179.8608,22.0938 L181.3452,22.0938 Q181.3452,21.4375 181.4702,21.25 Q181.7358,20.8438 182.2046,20.8438 Q182.5796,20.8438 182.814,21.1094 Q183.0483,21.3594 183.0483,21.9688 L183.0483,23.9375 Q183.0483,24.4844 182.9233,24.6719 Q182.6577,25.0625 182.2046,25.0625 Q181.7358,25.0625 181.4702,24.6563 Q181.3452,24.4688 181.3452,23.7969 L179.8608,23.7969 Z " fill="#000000"/><text fill="#000000" font-family="sans-serif" font-size="14" lengthAdjust="spacing" textLength="29.5586" x="201.5015" y="28.7969">User</text><line style="stroke:#181818;stroke-width:0.5;" x1="114.5" x2="285.5615" y1="39" y2="39"/><ellipse cx="124.5" cy="53.8105" fill="#000000" rx="3" ry="3" style="stroke:#000000;stroke-width:1.0;"/><text fill="#000000" font-family="sans-serif" font-size="14" lengthAdjust="spacing" textLength="127.6611" x="133.5" y="58.1074">id: uuid &#171;generated&#187;</text><text fill="#000000" font-family="sans-serif" font-size="14" lengthAdjust="spacing" textLength="116.7236" x="133.5" y="76.7285">login: varchar(100)</text><text fill="#000000" font-family="sans-serif" font-size="14" lengthAdjust="spacing" textLength="147.0615" x="133.5" y="95.3496">password: varchar(100)</text><line style="stroke:#181818;stroke-width:1.0;" x1="114.5" x2="285.5615" y1="102.8633" y2="102.8633"/></g><!--class House--><g id="elem_House"><rect codeLine="9" fill="#F1F1F1" height="122.4844" id="House" rx="2.5" ry="2.5" style="stroke:#181818;stroke-width:0.5;" width="153.6611" x="123" y="232"/><ellipse cx="175.3462" cy="248" fill="#ADD1B2" rx="11" ry="11" style="stroke:#181818;stroke-width:1.0;"/><path d="M174.2056,248.7969 L174.2056,251.2969 L178.5337,251.2969 L178.5337,250.375 Q178.5337,249.7656 178.7681,249.5 Q179.0181,249.2344 179.3931,249.2344 Q179.7681,249.2344 180.0024,249.5 Q180.2368,249.7656 180.2368,250.375 L180.2368,253 L172.2368,253 Q171.6118,253 171.3462,252.7656 Q171.0962,252.5313 171.0962,252.1406 Q171.0962,251.7656 171.3618,251.5313 Q171.6274,251.2969 172.2368,251.2969 L172.5024,251.2969 L172.5024,244.6406 L172.2368,244.6406 Q171.6118,244.6406 171.3462,244.4063 Q171.0962,244.1719 171.0962,243.7813 Q171.0962,243.4063 171.3462,243.1719 Q171.6118,242.9375 172.2368,242.9375 L179.8618,242.9375 L179.8618,245.5313 Q179.8618,246.1406 179.6274,246.4063 Q179.4087,246.6563 179.0181,246.6563 Q178.6431,246.6563 178.4087,246.4063 Q178.1743,246.1406 178.1743,245.5313 L178.1743,244.6406 L174.2056,244.6406 L174.2056,247.0938 L175.6899,247.0938 Q175.6899,246.4375 175.8149,246.25 Q176.0806,245.8438 176.5493,245.8438 Q176.9243,245.8438 177.1587,246.1094 Q177.3931,246.3594 177.3931,246.9688 L177.3931,248.9375 Q177.3931,249.4844 177.2681,249.6719 Q177.0024,250.0625 176.5493,250.0625 Q176.0806,250.0625 175.8149,249.6563 Q175.6899,249.4688 175.6899,248.7969 L174.2056,248.7969 Z " fill="#000000"/><text fill="#000000" font-family="sans-serif" font-size="14" lengthAdjust="spacing" textLength="40.4688" x="195.8462" y="253.7969">House</text><line style="stroke:#181818;stroke-width:0.5;" x1="124" x2="275.6611" y1="264" y2="264"/><ellipse cx="134" cy="278.8105" fill="#000000" rx="3" ry="3" style="stroke:#000000;stroke-width:1.0;"/><text fill="#000000" font-family="sans-serif" font-size="14" lengthAdjust="spacing" textLength="127.6611" x="143" y="283.1074">id: uuid &#171;generated&#187;</text><text fill="#000000" font-family="sans-serif" font-size="14" lengthAdjust="spacing" textLength="108.9307" x="143" y="301.7285">title: varchar(100)</text><text fill="#000000" font-family="sans-serif" font-size="14" lengthAdjust="spacing" textLength="80.1514" x="143" y="320.3496">address: text</text><text fill="#000000" font-family="sans-serif" font-size="14" lengthAdjust="spacing" textLength="80.165" x="143" y="338.9707">user_id: uuid</text><line style="stroke:#181818;stroke-width:1.0;" x1="124" x2="275.6611" y1="346.4844" y2="346.4844"/></g><!--class Device--><g id="elem_Device"><rect codeLine="17" fill="#F1F1F1" height="178.3477" id="Device" rx="2.5" ry="2.5" style="stroke:#181818;stroke-width:0.5;" width="261.0469" x="69.5" y="475"/><ellipse cx="174.377" cy="491" fill="#ADD1B2" rx="11" ry="11" style="stroke:#181818;stroke-width:1.0;"/><path d="M173.2363,491.7969 L173.2363,494.2969 L177.5645,494.2969 L177.5645,493.375 Q177.5645,492.7656 177.7988,492.5 Q178.0488,492.2344 178.4238,492.2344 Q178.7988,492.2344 179.0332,492.5 Q179.2676,492.7656 179.2676,493.375 L179.2676,496 L171.2676,496 Q170.6426,496 170.377,495.7656 Q170.127,495.5313 170.127,495.1406 Q170.127,494.7656 170.3926,494.5313 Q170.6582,494.2969 171.2676,494.2969 L171.5332,494.2969 L171.5332,487.6406 L171.2676,487.6406 Q170.6426,487.6406 170.377,487.4063 Q170.127,487.1719 170.127,486.7813 Q170.127,486.4063 170.377,486.1719 Q170.6426,485.9375 171.2676,485.9375 L178.8926,485.9375 L178.8926,488.5313 Q178.8926,489.1406 178.6582,489.4063 Q178.4395,489.6563 178.0488,489.6563 Q177.6738,489.6563 177.4395,489.4063 Q177.2051,489.1406 177.2051,488.5313 L177.2051,487.6406 L173.2363,487.6406 L173.2363,490.0938 L174.7207,490.0938 Q174.7207,489.4375 174.8457,489.25 Q175.1113,488.8438 175.5801,488.8438 Q175.9551,488.8438 176.1895,489.1094 Q176.4238,489.3594 176.4238,489.9688 L176.4238,491.9375 Q176.4238,492.4844 176.2988,492.6719 Q176.0332,493.0625 175.5801,493.0625 Q175.1113,493.0625 174.8457,492.6563 Q174.7207,492.4688 174.7207,491.7969 L173.2363,491.7969 Z " fill="#000000"/><text fill="#000000" font-family="sans-serif" font-size="14" lengthAdjust="spacing" textLength="42.793" x="194.877" y="496.7969">Device</text><line style="stroke:#181818;stroke-width:0.5;" x1="70.5" x2="329.5469" y1="507" y2="507"/><ellipse cx="80.5" cy="521.8105" fill="#000000" rx="3" ry="3" style="stroke:#000000;stroke-width:1.0;"/><text fill="#000000" font-family="sans-serif" font-size="14" lengthAdjust="spacing" textLength="127.6611" x="89.5" y="526.1074">id: uuid &#171;generated&#187;</text><text fill="#000000" font-family="sans-serif" font-size="14" lengthAdjust="spacing" textLength="108.9307" x="89.5" y="544.7285">title: varchar(100)</text><text fill="#000000" font-family="sans-serif" font-size="14" lengthAdjust="spacing" textLength="79.3926" x="89.5" y="563.3496">type_id: uuid</text><text fill="#000000" font-family="sans-serif" font-size="14" lengthAdjust="spacing" textLength="91.0752" x="89.5" y="581.9707">house_id: uuid</text><text fill="#000000" font-family="sans-serif" font-size="14" lengthAdjust="spacing" textLength="175.8545" x="89.5" y="600.5918">serial_number: varchar(100)</text><text fill="#000000" font-family="sans-serif" font-size="14" lengthAdjust="spacing" textLength="116.71" x="89.5" y="619.2129">status: varchar(50)</text><text fill="#000000" font-family="sans-serif" font-size="14" lengthAdjust="spacing" textLength="235.0469" x="89.5" y="637.834">last_updated: timestamp &#171;generated&#187;</text><line style="stroke:#181818;stroke-width:1.0;" x1="70.5" x2="329.5469" y1="645.3477" y2="645.3477"/></g><!--class DeviceType--><g id="elem_DeviceType"><rect codeLine="28" fill="#F1F1F1" height="85.2422" id="DeviceType" rx="2.5" ry="2.5" style="stroke:#181818;stroke-width:0.5;" width="153.6611" x="7" y="844.5"/><ellipse cx="43.4849" cy="860.5" fill="#ADD1B2" rx="11" ry="11" style="stroke:#181818;stroke-width:1.0;"/><path d="M42.3442,861.2969 L42.3442,863.7969 L46.6724,863.7969 L46.6724,862.875 Q46.6724,862.2656 46.9067,862 Q47.1567,861.7344 47.5317,861.7344 Q47.9067,861.7344 48.1411,862 Q48.3755,862.2656 48.3755,862.875 L48.3755,865.5 L40.3755,865.5 Q39.7505,865.5 39.4849,865.2656 Q39.2349,865.0313 39.2349,864.6406 Q39.2349,864.2656 39.5005,864.0313 Q39.7661,863.7969 40.3755,863.7969 L40.6411,863.7969 L40.6411,857.1406 L40.3755,857.1406 Q39.7505,857.1406 39.4849,856.9063 Q39.2349,856.6719 39.2349,856.2813 Q39.2349,855.9063 39.4849,855.6719 Q39.7505,855.4375 40.3755,855.4375 L48.0005,855.4375 L48.0005,858.0313 Q48.0005,858.6406 47.7661,858.9063 Q47.5474,859.1563 47.1567,859.1563 Q46.7817,859.1563 46.5474,858.9063 Q46.313,858.6406 46.313,858.0313 L46.313,857.1406 L42.3442,857.1406 L42.3442,859.5938 L43.8286,859.5938 Q43.8286,858.9375 43.9536,858.75 Q44.2192,858.3438 44.688,858.3438 Q45.063,858.3438 45.2974,858.6094 Q45.5317,858.8594 45.5317,859.4688 L45.5317,861.4375 Q45.5317,861.9844 45.4067,862.1719 Q45.1411,862.5625 44.688,862.5625 Q44.2192,862.5625 43.9536,862.1563 Q43.8286,861.9688 43.8286,861.2969 L42.3442,861.2969 Z " fill="#000000"/><text fill="#000000" font-family="sans-serif" font-size="14" lengthAdjust="spacing" textLength="73.917" x="62.2593" y="866.2969">DeviceType</text><line style="stroke:#181818;stroke-width:0.5;" x1="8" x2="159.6611" y1="876.5" y2="876.5"/><ellipse cx="18" cy="891.3105" fill="#000000" rx="3" ry="3" style="stroke:#000000;stroke-width:1.0;"/><text fill="#000000" font-family="sans-serif" font-size="14" lengthAdjust="spacing" textLength="127.6611" x="27" y="895.6074">id: uuid &#171;generated&#187;</text><text fill="#000000" font-family="sans-serif" font-size="14" lengthAdjust="spacing" textLength="108.9307" x="27" y="914.2285">title: varchar(100)</text><line style="stroke:#181818;stroke-width:1.0;" x1="8" x2="159.6611" y1="921.7422" y2="921.7422"/></g><!--class Telemetry--><g id="elem_Telemetry"><rect codeLine="34" fill="#F1F1F1" height="103.8633" id="Telemetry" rx="2.5" ry="2.5" style="stroke:#181818;stroke-width:0.5;" width="240.0469" x="196" y="835"/><ellipse cx="280.6563" cy="851" fill="#ADD1B2" rx="11" ry="11" style="stroke:#181818;stroke-width:1.0;"/><path d="M279.5156,851.7969 L279.5156,854.2969 L283.8438,854.2969 L283.8438,853.375 Q283.8438,852.7656 284.0781,852.5 Q284.3281,852.2344 284.7031,852.2344 Q285.0781,852.2344 285.3125,852.5 Q285.5469,852.7656 285.5469,853.375 L285.5469,856 L277.5469,856 Q276.9219,856 276.6563,855.7656 Q276.4063,855.5313 276.4063,855.1406 Q276.4063,854.7656 276.6719,854.5313 Q276.9375,854.2969 277.5469,854.2969 L277.8125,854.2969 L277.8125,847.6406 L277.5469,847.6406 Q276.9219,847.6406 276.6563,847.4063 Q276.4063,847.1719 276.4063,846.7813 Q276.4063,846.4063 276.6563,846.1719 Q276.9219,845.9375 277.5469,845.9375 L285.1719,845.9375 L285.1719,848.5313 Q285.1719,849.1406 284.9375,849.4063 Q284.7188,849.6563 284.3281,849.6563 Q283.9531,849.6563 283.7188,849.4063 Q283.4844,849.1406 283.4844,848.5313 L283.4844,847.6406 L279.5156,847.6406 L279.5156,850.0938 L281,850.0938 Q281,849.4375 281.125,849.25 Q281.3906,848.8438 281.8594,848.8438 Q282.2344,848.8438 282.4688,849.1094 Q282.7031,849.3594 282.7031,849.9688 L282.7031,851.9375 Q282.7031,852.4844 282.5781,852.6719 Q282.3125,853.0625 281.8594,853.0625 Q281.3906,853.0625 281.125,852.6563 Q281,852.4688 281,851.7969 L279.5156,851.7969 Z " fill="#000000"/><text fill="#000000" font-family="sans-serif" font-size="14" lengthAdjust="spacing" textLength="62.2344" x="301.1563" y="856.7969">Telemetry</text><line style="stroke:#181818;stroke-width:0.5;" x1="197" x2="435.0469" y1="867" y2="867"/><text fill="#000000" font-family="sans-serif" font-size="14" lengthAdjust="spacing" textLength="93.3994" x="202" y="886.1074">device_id: uuid</text><text fill="#000000" font-family="sans-serif" font-size="14" lengthAdjust="spacing" textLength="60.71" x="202" y="904.7285">data: json</text><text fill="#000000" font-family="sans-serif" font-size="14" lengthAdjust="spacing" textLength="228.0469" x="202" y="923.3496">changed_at: timestamp &#171;generated&#187;</text><line style="stroke:#181818;stroke-width:1.0;" x1="197" x2="435.0469" y1="930.8633" y2="930.8633"/></g><!--link User to House--><g id="link_User_House"><path codeLine="41" d="M200,119.2 C200,154.83 200,176.47 200,213.9 " fill="none" id="User-House" style="stroke:#181818;stroke-width:1.0;"/><line style="stroke:#181818;stroke-width:1.0;" x1="196" x2="204" y1="115.2" y2="115.2"/><line style="stroke:#181818;stroke-width:1.0;" x1="196" x2="204" y1="118.2" y2="118.2"/><line style="stroke:#181818;stroke-width:1.0;" x1="200" x2="200" y1="119.2" y2="111.2"/><line style="stroke:#181818;stroke-width:1.0;" x1="200" x2="206" y1="223.9" y2="231.9"/><line style="stroke:#181818;stroke-width:1.0;" x1="200" x2="194" y1="223.9" y2="231.9"/><line style="stroke:#181818;stroke-width:1.0;" x1="200" x2="200" y1="223.9" y2="231.9"/><ellipse cx="200" cy="217.9" fill="none" rx="4" ry="4" style="stroke:#181818;stroke-width:1.0;"/></g><!--link House to Device--><g id="link_House_Device"><path codeLine="42" d="M200,362.03 C200,397.57 200,417.24 200,456.81 " fill="none" id="House-Device" style="stroke:#181818;stroke-width:1.0;"/><line style="stroke:#181818;stroke-width:1.0;" x1="196" x2="204" y1="358.03" y2="358.03"/><line style="stroke:#181818;stroke-width:1.0;" x1="196" x2="204" y1="361.03" y2="361.03"/><line style="stroke:#181818;stroke-width:1.0;" x1="200" x2="200" y1="362.03" y2="354.03"/><line style="stroke:#181818;stroke-width:1.0;" x1="200" x2="206" y1="466.81" y2="474.81"/><line style="stroke:#181818;stroke-width:1.0;" x1="200" x2="194" y1="466.81" y2="474.81"/><line style="stroke:#181818;stroke-width:1.0;" x1="200" x2="200" y1="466.81" y2="474.81"/><ellipse cx="200" cy="460.81" fill="none" rx="4" ry="4" style="stroke:#181818;stroke-width:1.0;"/></g><!--link Device to DeviceType--><g id="link_Device_DeviceType"><path codeLine="43" d="M162.0313,670.0681 C139.4913,732.4281 122.5372,779.3713 105.1272,827.5513 " fill="none" id="Device-DeviceType" style="stroke:#181818;stroke-width:1.0;"/><line style="stroke:#181818;stroke-width:1.0;" x1="165.4306" x2="162.5073" y1="660.6636" y2="651.1004"/><line style="stroke:#181818;stroke-width:1.0;" x1="165.4306" x2="173.7927" y1="660.6636" y2="655.1796"/><line style="stroke:#181818;stroke-width:1.0;" x1="165.4306" x2="168.15" y1="660.6636" y2="653.14"/><ellipse cx="163.391" cy="666.3063" fill="none" rx="4" ry="4" style="stroke:#181818;stroke-width:1.0;"/><line style="stroke:#181818;stroke-width:1.0;" x1="101.7288" x2="104.6529" y1="836.9562" y2="846.5191"/><line style="stroke:#181818;stroke-width:1.0;" x1="101.7288" x2="93.3671" y1="836.9562" y2="842.4409"/><line style="stroke:#181818;stroke-width:1.0;" x1="101.7288" x2="99.01" y1="836.9562" y2="844.48"/><ellipse cx="103.7678" cy="831.3133" fill="none" rx="4" ry="4" style="stroke:#181818;stroke-width:1.0;"/></g><!--link Device to Telemetry--><g id="link_Device_Telemetry"><path codeLine="44" d="M234.5688,660.6638 C255.6288,718.9438 273.6721,768.8716 291.3121,817.6816 " fill="none" id="Device-Telemetry" style="stroke:#181818;stroke-width:1.0;"/><line style="stroke:#181818;stroke-width:1.0;" x1="229.4475" x2="236.9713" y1="658.2613" y2="655.5425"/><line style="stroke:#181818;stroke-width:1.0;" x1="230.467" x2="237.9909" y1="661.0828" y2="658.364"/><line style="stroke:#181818;stroke-width:1.0;" x1="234.5688" x2="231.85" y1="660.6638" y2="653.14"/><line style="stroke:#181818;stroke-width:1.0;" x1="294.7109" x2="303.0728" y1="827.0863" y2="832.5707"/><line style="stroke:#181818;stroke-width:1.0;" x1="294.7109" x2="291.7872" y1="827.0863" y2="836.6493"/><line style="stroke:#181818;stroke-width:1.0;" x1="294.7109" x2="297.43" y1="827.0863" y2="834.61"/><ellipse cx="292.6716" cy="821.4435" fill="none" rx="4" ry="4" style="stroke:#181818;stroke-width:1.0;"/></g><!--SRC=[dPB1JiCm44Jl_eez0fAbSk0ILJrnu0FQSsJgLMhas95tNOZQ_ZiRXq0WI9LwzApzPaPh3EouXnrXWfC2U01dAyZPMLYl6moO3AFTR6JaO-D21KUJzWUJxXvNgtjHEqFq7fDT3BHM5wLmvB_4J7ZDG6vwN72CjGc9Ac3yO3aBADKJuw_FCnxT_aOZxZkSWmz3vhaWnixuEkJs5TFYER7XJ3_oKr6z8QvpPmTlgU1Qb7jjjuZqJukjvBcjoI_O5ZssoAalB5lGyrOIpLJmHZ78GIYXGLiRlXws_9dpMMiTJ-E2rRZcIHjhgA-TNAAUoqExQLGU3AFlhEeJ]--></g></svg>