<svg xmlns="http://www.w3.org/2000/svg" xmlns:xlink="http://www.w3.org/1999/xlink" contentStyleType="text/css" height="927px" preserveAspectRatio="none" style="width:350px;height:927px;background:#FFFFFF;" version="1.1" viewBox="0 0 350 927" width="350px" zoomAndPan="magnify"><defs/><g><!--class User--><g id="elem_User"><rect codeLine="2" fill="#F1F1F1" height="103.8633" id="User" rx="2.5" ry="2.5" style="stroke:#181818;stroke-width:0.5;" width="153.6611" x="100" y="7"/><ellipse cx="157.8013" cy="23" fill="#ADD1B2" rx="11" ry="11" style="stroke:#181818;stroke-width:1.0;"/><path d="M156.6606,23.7969 L156.6606,26.2969 L160.9888,26.2969 L160.9888,25.375 Q160.9888,24.7656 161.2231,24.5 Q161.4731,24.2344 161.8481,24.2344 Q162.2231,24.2344 162.4575,24.5 Q162.6919,24.7656 162.6919,25.375 L162.6919,28 L154.6919,28 Q154.0669,28 153.8013,27.7656 Q153.5513,27.5313 153.5513,27.1406 Q153.5513,26.7656 153.8169,26.5313 Q154.0825,26.2969 154.6919,26.2969 L154.9575,26.2969 L154.9575,19.6406 L154.6919,19.6406 Q154.0669,19.6406 153.8013,19.4063 Q153.5513,19.1719 153.5513,18.7813 Q153.5513,18.4063 153.8013,18.1719 Q154.0669,17.9375 154.6919,17.9375 L162.3169,17.9375 L162.3169,20.5313 Q162.3169,21.1406 162.0825,21.4063 Q161.8638,21.6563 161.4731,21.6563 Q161.0981,21.6563 160.8638,21.4063 Q160.6294,21.1406 160.6294,20.5313 L160.6294,19.6406 L156.6606,19.6406 L156.6606,22.0938 L158.145,22.0938 Q158.145,21.4375 158.27,21.25 Q158.5356,20.8438 159.0044,20.8438 Q159.3794,20.8438 159.6138,21.1094 Q159.8481,21.3594 159.8481,21.9688 L159.8481,23.9375 Q159.8481,24.4844 159.7231,24.6719 Q159.4575,25.0625 159.0044,25.0625 Q158.5356,25.0625 158.27,24.6563 Q158.145,24.4688 158.145,23.7969 L156.6606,23.7969 Z " fill="#000000"/><text fill="#000000" font-family="sans-serif" font-size="14" lengthAdjust="spacing" textLength="29.5586" x="178.3013" y="28.7969">User</text><line style="stroke:#181818;stroke-width:0.5;" x1="101" x2="252.6611" y1="39" y2="39"/><ellipse cx="111" cy="53.8105" fill="#000000" rx="3" ry="3" style="stroke:#000000;stroke-width:1.0;"/><text fill="#000000" font-family="sans-serif" font-size="14" lengthAdjust="spacing" textLength="127.6611" x="120" y="58.1074">id: uuid &#171;generated&#187;</text><text fill="#000000" font-family="sans-serif" font-size="14" lengthAdjust="spacing" textLength="59.9238" x="120" y="76.7285">login: text</text><text fill="#000000" font-family="sans-serif" font-size="14" lengthAdjust="spacing" textLength="90.2617" x="120" y="95.3496">password: text</text><line style="stroke:#181818;stroke-width:1.0;" x1="101" x2="252.6611" y1="102.8633" y2="102.8633"/></g><!--class House--><g id="elem_House"><rect codeLine="9" fill="#F1F1F1" height="122.4844" id="House" rx="2.5" ry="2.5" style="stroke:#181818;stroke-width:0.5;" width="153.6611" x="100" y="232"/><ellipse cx="152.3462" cy="248" fill="#ADD1B2" rx="11" ry="11" style="stroke:#181818;stroke-width:1.0;"/><path d="M151.2056,248.7969 L151.2056,251.2969 L155.5337,251.2969 L155.5337,250.375 Q155.5337,249.7656 155.7681,249.5 Q156.0181,249.2344 156.3931,249.2344 Q156.7681,249.2344 157.0024,249.5 Q157.2368,249.7656 157.2368,250.375 L157.2368,253 L149.2368,253 Q148.6118,253 148.3462,252.7656 Q148.0962,252.5313 148.0962,252.1406 Q148.0962,251.7656 148.3618,251.5313 Q148.6274,251.2969 149.2368,251.2969 L149.5024,251.2969 L149.5024,244.6406 L149.2368,244.6406 Q148.6118,244.6406 148.3462,244.4063 Q148.0962,244.1719 148.0962,243.7813 Q148.0962,243.4063 148.3462,243.1719 Q148.6118,242.9375 149.2368,242.9375 L156.8618,242.9375 L156.8618,245.5313 Q156.8618,246.1406 156.6274,246.4063 Q156.4087,246.6563 156.0181,246.6563 Q155.6431,246.6563 155.4087,246.4063 Q155.1743,246.1406 155.1743,245.5313 L155.1743,244.6406 L151.2056,244.6406 L151.2056,247.0938 L152.6899,247.0938 Q152.6899,246.4375 152.8149,246.25 Q153.0806,245.8438 153.5493,245.8438 Q153.9243,245.8438 154.1587,246.1094 Q154.3931,246.3594 154.3931,246.9688 L154.3931,248.9375 Q154.3931,249.4844 154.2681,249.6719 Q154.0024,250.0625 153.5493,250.0625 Q153.0806,250.0625 152.8149,249.6563 Q152.6899,249.4688 152.6899,248.7969 L151.2056,248.7969 Z " fill="#000000"/><text fill="#000000" font-family="sans-serif" font-size="14" lengthAdjust="spacing" textLength="40.4688" x="172.8462" y="253.7969">House</text><line style="stroke:#181818;stroke-width:0.5;" x1="101" x2="252.6611" y1="264" y2="264"/><ellipse cx="111" cy="278.8105" fill="#000000" rx="3" ry="3" style="stroke:#000000;stroke-width:1.0;"/><text fill="#000000" font-family="sans-serif" font-size="14" lengthAdjust="spacing" textLength="127.6611" x="120" y="283.1074">id: uuid &#171;generated&#187;</text><text fill="#000000" font-family="sans-serif" font-size="14" lengthAdjust="spacing" textLength="52.1309" x="120" y="301.7285">title: text</text><text fill="#000000" font-family="sans-serif" font-size="14" lengthAdjust="spacing" textLength="80.1514" x="120" y="320.3496">address: text</text><text fill="#000000" font-family="sans-serif" font-size="14" lengthAdjust="spacing" textLength="80.165" x="120" y="338.9707">user_id: uuid</text><line style="stroke:#181818;stroke-width:1.0;" x1="101" x2="252.6611" y1="346.4844" y2="346.4844"/></g><!--class Device--><g id="elem_Device"><rect codeLine="17" fill="#F1F1F1" height="159.7266" id="Device" rx="2.5" ry="2.5" style="stroke:#181818;stroke-width:0.5;" width="153.6611" x="100" y="475"/><ellipse cx="151.1841" cy="491" fill="#ADD1B2" rx="11" ry="11" style="stroke:#181818;stroke-width:1.0;"/><path d="M150.0435,491.7969 L150.0435,494.2969 L154.3716,494.2969 L154.3716,493.375 Q154.3716,492.7656 154.606,492.5 Q154.856,492.2344 155.231,492.2344 Q155.606,492.2344 155.8403,492.5 Q156.0747,492.7656 156.0747,493.375 L156.0747,496 L148.0747,496 Q147.4497,496 147.1841,495.7656 Q146.9341,495.5313 146.9341,495.1406 Q146.9341,494.7656 147.1997,494.5313 Q147.4653,494.2969 148.0747,494.2969 L148.3403,494.2969 L148.3403,487.6406 L148.0747,487.6406 Q147.4497,487.6406 147.1841,487.4063 Q146.9341,487.1719 146.9341,486.7813 Q146.9341,486.4063 147.1841,486.1719 Q147.4497,485.9375 148.0747,485.9375 L155.6997,485.9375 L155.6997,488.5313 Q155.6997,489.1406 155.4653,489.4063 Q155.2466,489.6563 154.856,489.6563 Q154.481,489.6563 154.2466,489.4063 Q154.0122,489.1406 154.0122,488.5313 L154.0122,487.6406 L150.0435,487.6406 L150.0435,490.0938 L151.5278,490.0938 Q151.5278,489.4375 151.6528,489.25 Q151.9185,488.8438 152.3872,488.8438 Q152.7622,488.8438 152.9966,489.1094 Q153.231,489.3594 153.231,489.9688 L153.231,491.9375 Q153.231,492.4844 153.106,492.6719 Q152.8403,493.0625 152.3872,493.0625 Q151.9185,493.0625 151.6528,492.6563 Q151.5278,492.4688 151.5278,491.7969 L150.0435,491.7969 Z " fill="#000000"/><text fill="#000000" font-family="sans-serif" font-size="14" lengthAdjust="spacing" textLength="42.793" x="171.6841" y="496.7969">Device</text><line style="stroke:#181818;stroke-width:0.5;" x1="101" x2="252.6611" y1="507" y2="507"/><ellipse cx="111" cy="521.8105" fill="#000000" rx="3" ry="3" style="stroke:#000000;stroke-width:1.0;"/><text fill="#000000" font-family="sans-serif" font-size="14" lengthAdjust="spacing" textLength="127.6611" x="120" y="526.1074">id: uuid &#171;generated&#187;</text><text fill="#000000" font-family="sans-serif" font-size="14" lengthAdjust="spacing" textLength="52.1309" x="120" y="544.7285">title: text</text><text fill="#000000" font-family="sans-serif" font-size="14" lengthAdjust="spacing" textLength="79.3926" x="120" y="563.3496">type_id: uuid</text><text fill="#000000" font-family="sans-serif" font-size="14" lengthAdjust="spacing" textLength="91.0752" x="120" y="581.9707">house_id: uuid</text><text fill="#000000" font-family="sans-serif" font-size="14" lengthAdjust="spacing" textLength="119.0547" x="120" y="600.5918">serial_number: text</text><text fill="#000000" font-family="sans-serif" font-size="14" lengthAdjust="spacing" textLength="94.958" x="120" y="619.2129">status: boolean</text><line style="stroke:#181818;stroke-width:1.0;" x1="101" x2="252.6611" y1="626.7266" y2="626.7266"/></g><!--class DeviceType--><g id="elem_DeviceType"><rect codeLine="27" fill="#F1F1F1" height="85.2422" id="DeviceType" rx="2.5" ry="2.5" style="stroke:#181818;stroke-width:0.5;" width="153.6611" x="7" y="826.5"/><ellipse cx="43.4849" cy="842.5" fill="#ADD1B2" rx="11" ry="11" style="stroke:#181818;stroke-width:1.0;"/><path d="M42.3442,843.2969 L42.3442,845.7969 L46.6724,845.7969 L46.6724,844.875 Q46.6724,844.2656 46.9067,844 Q47.1567,843.7344 47.5317,843.7344 Q47.9067,843.7344 48.1411,844 Q48.3755,844.2656 48.3755,844.875 L48.3755,847.5 L40.3755,847.5 Q39.7505,847.5 39.4849,847.2656 Q39.2349,847.0313 39.2349,846.6406 Q39.2349,846.2656 39.5005,846.0313 Q39.7661,845.7969 40.3755,845.7969 L40.6411,845.7969 L40.6411,839.1406 L40.3755,839.1406 Q39.7505,839.1406 39.4849,838.9063 Q39.2349,838.6719 39.2349,838.2813 Q39.2349,837.9063 39.4849,837.6719 Q39.7505,837.4375 40.3755,837.4375 L48.0005,837.4375 L48.0005,840.0313 Q48.0005,840.6406 47.7661,840.9063 Q47.5474,841.1563 47.1567,841.1563 Q46.7817,841.1563 46.5474,840.9063 Q46.313,840.6406 46.313,840.0313 L46.313,839.1406 L42.3442,839.1406 L42.3442,841.5938 L43.8286,841.5938 Q43.8286,840.9375 43.9536,840.75 Q44.2192,840.3438 44.688,840.3438 Q45.063,840.3438 45.2974,840.6094 Q45.5317,840.8594 45.5317,841.4688 L45.5317,843.4375 Q45.5317,843.9844 45.4067,844.1719 Q45.1411,844.5625 44.688,844.5625 Q44.2192,844.5625 43.9536,844.1563 Q43.8286,843.9688 43.8286,843.2969 L42.3442,843.2969 Z " fill="#000000"/><text fill="#000000" font-family="sans-serif" font-size="14" lengthAdjust="spacing" textLength="73.917" x="62.2593" y="848.2969">DeviceType</text><line style="stroke:#181818;stroke-width:0.5;" x1="8" x2="159.6611" y1="858.5" y2="858.5"/><ellipse cx="18" cy="873.3105" fill="#000000" rx="3" ry="3" style="stroke:#000000;stroke-width:1.0;"/><text fill="#000000" font-family="sans-serif" font-size="14" lengthAdjust="spacing" textLength="127.6611" x="27" y="877.6074">id: uuid &#171;generated&#187;</text><text fill="#000000" font-family="sans-serif" font-size="14" lengthAdjust="spacing" textLength="52.1309" x="27" y="896.2285">title: text</text><line style="stroke:#181818;stroke-width:1.0;" x1="8" x2="159.6611" y1="903.7422" y2="903.7422"/></g><!--class Telemetry--><g id="elem_Telemetry"><rect codeLine="33" fill="#F1F1F1" height="103.8633" id="Telemetry" rx="2.5" ry="2.5" style="stroke:#181818;stroke-width:0.5;" width="146.6543" x="196.5" y="817"/><ellipse cx="235.089" cy="833" fill="#ADD1B2" rx="11" ry="11" style="stroke:#181818;stroke-width:1.0;"/><path d="M233.9483,833.7969 L233.9483,836.2969 L238.2765,836.2969 L238.2765,835.375 Q238.2765,834.7656 238.5108,834.5 Q238.7608,834.2344 239.1358,834.2344 Q239.5108,834.2344 239.7452,834.5 Q239.9796,834.7656 239.9796,835.375 L239.9796,838 L231.9796,838 Q231.3546,838 231.089,837.7656 Q230.839,837.5313 230.839,837.1406 Q230.839,836.7656 231.1046,836.5313 Q231.3702,836.2969 231.9796,836.2969 L232.2452,836.2969 L232.2452,829.6406 L231.9796,829.6406 Q231.3546,829.6406 231.089,829.4063 Q230.839,829.1719 230.839,828.7813 Q230.839,828.4063 231.089,828.1719 Q231.3546,827.9375 231.9796,827.9375 L239.6046,827.9375 L239.6046,830.5313 Q239.6046,831.1406 239.3702,831.4063 Q239.1515,831.6563 238.7608,831.6563 Q238.3858,831.6563 238.1515,831.4063 Q237.9171,831.1406 237.9171,830.5313 L237.9171,829.6406 L233.9483,829.6406 L233.9483,832.0938 L235.4327,832.0938 Q235.4327,831.4375 235.5577,831.25 Q235.8233,830.8438 236.2921,830.8438 Q236.6671,830.8438 236.9015,831.1094 Q237.1358,831.3594 237.1358,831.9688 L237.1358,833.9375 Q237.1358,834.4844 237.0108,834.6719 Q236.7452,835.0625 236.2921,835.0625 Q235.8233,835.0625 235.5577,834.6563 Q235.4327,834.4688 235.4327,833.7969 L233.9483,833.7969 Z " fill="#000000"/><text fill="#000000" font-family="sans-serif" font-size="14" lengthAdjust="spacing" textLength="62.2344" x="254.331" y="838.7969">Telemetry</text><line style="stroke:#181818;stroke-width:0.5;" x1="197.5" x2="342.1543" y1="849" y2="849"/><text fill="#000000" font-family="sans-serif" font-size="14" lengthAdjust="spacing" textLength="93.3994" x="202.5" y="868.1074">device_id: uuid</text><text fill="#000000" font-family="sans-serif" font-size="14" lengthAdjust="spacing" textLength="60.71" x="202.5" y="886.7285">data: json</text><text fill="#000000" font-family="sans-serif" font-size="14" lengthAdjust="spacing" textLength="134.6543" x="202.5" y="905.3496">changed_at: datetime</text><line style="stroke:#181818;stroke-width:1.0;" x1="197.5" x2="342.1543" y1="912.8633" y2="912.8633"/></g><!--link User to House--><g id="link_User_House"><path codeLine="40" d="M177,119.2 C177,154.83 177,176.47 177,213.9 " fill="none" id="User-House" style="stroke:#181818;stroke-width:1.0;"/><line style="stroke:#181818;stroke-width:1.0;" x1="173" x2="181" y1="115.2" y2="115.2"/><line style="stroke:#181818;stroke-width:1.0;" x1="173" x2="181" y1="118.2" y2="118.2"/><line style="stroke:#181818;stroke-width:1.0;" x1="177" x2="177" y1="119.2" y2="111.2"/><line style="stroke:#181818;stroke-width:1.0;" x1="177" x2="183" y1="223.9" y2="231.9"/><line style="stroke:#181818;stroke-width:1.0;" x1="177" x2="171" y1="223.9" y2="231.9"/><line style="stroke:#181818;stroke-width:1.0;" x1="177" x2="177" y1="223.9" y2="231.9"/><ellipse cx="177" cy="217.9" fill="none" rx="4" ry="4" style="stroke:#181818;stroke-width:1.0;"/></g><!--link House to Device--><g id="link_House_Device"><path codeLine="41" d="M177,362.3 C177,398.16 177,418.05 177,456.8 " fill="none" id="House-Device" style="stroke:#181818;stroke-width:1.0;"/><line style="stroke:#181818;stroke-width:1.0;" x1="173" x2="181" y1="358.3" y2="358.3"/><line style="stroke:#181818;stroke-width:1.0;" x1="173" x2="181" y1="361.3" y2="361.3"/><line style="stroke:#181818;stroke-width:1.0;" x1="177" x2="177" y1="362.3" y2="354.3"/><line style="stroke:#181818;stroke-width:1.0;" x1="177" x2="183" y1="466.8" y2="474.8"/><line style="stroke:#181818;stroke-width:1.0;" x1="177" x2="171" y1="466.8" y2="474.8"/><line style="stroke:#181818;stroke-width:1.0;" x1="177" x2="177" y1="466.8" y2="474.8"/><ellipse cx="177" cy="460.8" fill="none" rx="4" ry="4" style="stroke:#181818;stroke-width:1.0;"/></g><!--link Device to DeviceType--><g id="link_Device_DeviceType"><path codeLine="42" d="M148.2695,652.3804 C130.1395,713.2204 116.0798,760.3594 101.5698,809.0594 " fill="none" id="Device-DeviceType" style="stroke:#181818;stroke-width:1.0;"/><line style="stroke:#181818;stroke-width:1.0;" x1="151.1253" x2="147.6599" y1="642.7968" y2="633.4165"/><line style="stroke:#181818;stroke-width:1.0;" x1="151.1253" x2="159.1601" y1="642.7968" y2="636.8435"/><line style="stroke:#181818;stroke-width:1.0;" x1="151.1253" x2="153.41" y1="642.7968" y2="635.13"/><ellipse cx="149.4118" cy="648.547" fill="none" rx="4" ry="4" style="stroke:#181818;stroke-width:1.0;"/><line style="stroke:#181818;stroke-width:1.0;" x1="98.7143" x2="102.1802" y1="818.6431" y2="828.0233"/><line style="stroke:#181818;stroke-width:1.0;" x1="98.7143" x2="90.6798" y1="818.6431" y2="824.5967"/><line style="stroke:#181818;stroke-width:1.0;" x1="98.7143" x2="96.43" y1="818.6431" y2="826.31"/><ellipse cx="100.4276" cy="812.8929" fill="none" rx="4" ry="4" style="stroke:#181818;stroke-width:1.0;"/></g><!--link Device to Telemetry--><g id="link_Device_Telemetry"><path codeLine="43" d="M202.8746,642.7969 C219.8746,699.8469 234.9076,750.2702 249.6076,799.5802 " fill="none" id="Device-Telemetry" style="stroke:#181818;stroke-width:1.0;"/><line style="stroke:#181818;stroke-width:1.0;" x1="197.8989" x2="205.5657" y1="640.1057" y2="637.8211"/><line style="stroke:#181818;stroke-width:1.0;" x1="198.7556" x2="206.4225" y1="642.9808" y2="640.6962"/><line style="stroke:#181818;stroke-width:1.0;" x1="202.8746" x2="200.59" y1="642.7969" y2="635.13"/><line style="stroke:#181818;stroke-width:1.0;" x1="252.4645" x2="260.4999" y1="809.1634" y2="815.1159"/><line style="stroke:#181818;stroke-width:1.0;" x1="252.4645" x2="249.0001" y1="809.1634" y2="818.5441"/><line style="stroke:#181818;stroke-width:1.0;" x1="252.4645" x2="254.75" y1="809.1634" y2="816.83"/><ellipse cx="250.7504" cy="803.4135" fill="none" rx="4" ry="4" style="stroke:#181818;stroke-width:1.0;"/></g><!--SRC=[bP71RiCW44JlVCMUA_43LfHJ3_s0z6njmiYXmX31qjPAyky5kqPkLQdAaHdcxS32YvM9NXCYNHNH4rdJKSxMq6utm2EomEptnN9XiBuZmQUKquLJ-WZHD45hTLSA2-ybv8J_WEMcGykpCH4fjNC1n7xD_kO_uzsU7XmWqmLRuBbst0fbe6NN-pmU4Lii2KikjOuXEB3_kycXi1zhymDoWCC8YTFCC3DosyomS4TlATJnfpFx0QPdwQe1iICQS5xaxQQr3jTb2shPnQejVTNt1zw3tihr6Qir1whLogal]--></g></svg>